<?xml version="1.0" encoding="UTF-8" standalone="no"?>
<svg width="784px" height="196px" viewBox="0 0 784 196" version="1.1" xmlns="http://www.w3.org/2000/svg" xmlns:xlink="http://www.w3.org/1999/xlink" xmlns:sketch="http://www.bohemiancoding.com/sketch/ns">
    <!-- Generator: Sketch 3.3.3 (12072) - http://www.bohemiancoding.com/sketch -->
    <title>typeof</title>
    <desc>Created with Sketch.</desc>
    <defs></defs>
    <g id="Page-1" stroke="none" stroke-width="1" fill="none" fill-rule="evenodd" sketch:type="MSPage">
        <g id="Artboard-2" sketch:type="MSArtboardGroup" transform="translate(-317.000000, -218.000000)" fill="#FFFFFF">
            <g id="Group" sketch:type="MSLayerGroup" transform="translate(217.000000, 34.000000)">
                <g id="typeof" transform="translate(100.000000, 184.000000)" sketch:type="MSShapeGroup">
                    <rect id="Rectangle-4" x="241.349976" y="184" width="17.8999996" height="11"></rect>
                    <path d="M46.1679687,23.0625 L46.1679687,48.3925781 L86,48.3925781 L86,62.2177734 L46.1679687,62.2177734 L46.1679687,119.06543 C46.1679687,123.125997 46.6835886,126.477526 47.7148437,129.120117 C48.7460989,131.762709 50.1640535,133.873527 51.96875,135.452637 C53.7734465,137.031746 55.852039,138.143551 58.2045898,138.788086 C60.5571407,139.43262 63.0546743,139.754883 65.6972656,139.754883 C67.630869,139.754883 69.6288959,139.642091 71.6914062,139.416504 C73.7539166,139.190917 75.7680566,138.916994 77.7338867,138.594727 C79.6997169,138.272459 81.5366126,137.934084 83.2446289,137.57959 C84.9526453,137.225096 86.3544867,136.918947 87.4501953,136.661133 L89.9638672,149.326172 C88.4814379,150.22852 86.6767684,151.018063 84.5498047,151.694824 C82.4228409,152.371585 80.1025516,152.951658 77.5888672,153.435059 C75.0751827,153.918459 72.4165179,154.289061 69.612793,154.546875 C66.809068,154.804689 64.0214982,154.933594 61.25,154.933594 C56.6093518,154.933594 52.2749225,154.272956 48.246582,152.95166 C44.2182416,151.630364 40.7216945,149.535659 37.7568359,146.66748 C34.7919774,143.799302 32.4555749,140.093284 30.7475586,135.549316 C29.0395422,131.005348 28.1855469,125.510774 28.1855469,119.06543 L28.1855469,62.2177734 L0.728515625,62.2177734 L0.728515625,48.3925781 L28.1855469,48.3925781 L28.1855469,23.0625 L46.1679687,23.0625 Z M161.120117,115.875 L165.760742,128.540039 L197.665039,48.3925781 L217.677734,48.3925781 L164.600586,169.145508 C163.37597,171.852553 161.812998,174.720688 159.911621,177.75 C158.010244,180.779312 155.706068,183.582995 152.999023,186.161133 C150.291979,188.739271 147.133807,190.898429 143.524414,192.638672 C139.915021,194.378915 135.757836,195.249023 131.052734,195.249023 C130.21484,195.249023 129.280279,195.200684 128.249023,195.104004 C127.217768,195.007324 126.186529,194.878419 125.155273,194.717285 C124.124018,194.556152 123.157231,194.378907 122.254883,194.185547 C121.352535,193.992187 120.611331,193.831055 120.03125,193.702148 L122.931641,179.103516 C123.382815,179.103516 123.995113,179.135742 124.768555,179.200195 C125.541996,179.264649 126.347652,179.329101 127.185547,179.393555 C128.023442,179.458008 128.829098,179.506347 129.602539,179.538574 C130.37598,179.570801 130.988279,179.586914 131.439453,179.586914 C133.888684,179.586914 136.128408,178.910163 138.158691,177.556641 C140.188975,176.203118 141.993644,174.591806 143.572754,172.722656 C145.151863,170.853506 146.505365,168.919932 147.633301,166.921875 C148.761236,164.923818 149.647458,163.28028 150.291992,161.991211 L157.446289,148.069336 L112.393555,48.3925781 L132.40625,48.3925781 L161.120117,115.875 Z M329.729492,101.856445 C329.729492,109.333045 328.827157,116.310026 327.022461,122.787598 C325.217764,129.265169 322.575213,134.888648 319.094727,139.658203 C315.61424,144.427758 311.312037,148.166002 306.187988,150.873047 C301.063939,153.580092 295.214877,154.933594 288.640625,154.933594 C282.259734,154.933594 276.636255,153.902354 271.77002,151.839844 C266.903784,149.777333 262.730486,146.812519 259.25,142.945312 L259.25,193.21875 L241.364258,193.21875 L241.364258,48.3925781 L257.703125,48.3925781 L258.573242,59.8007812 C262.053728,55.4824003 266.259253,52.1792107 271.189941,49.8911133 C276.12063,47.6030159 281.840788,46.4589844 288.350586,46.4589844 C295.053744,46.4589844 300.983373,47.7802602 306.139648,50.4228516 C311.295924,53.0654429 315.61424,56.7392343 319.094727,61.4443359 C322.575213,66.1494376 325.217764,71.7729165 327.022461,78.3149414 C328.827157,84.8569663 329.729492,92.0273048 329.729492,99.8261719 L329.729492,101.856445 Z M311.84375,99.8261719 C311.84375,94.7343495 311.279791,89.8843004 310.151855,85.2758789 C309.02392,80.6674574 307.283703,76.6069512 304.931152,73.0942383 C302.578602,69.5815254 299.597674,66.7939556 295.988281,64.7314453 C292.378888,62.668935 288.060572,61.6376953 283.033203,61.6376953 C277.296846,61.6376953 272.479023,62.9750843 268.57959,65.6499023 C264.680156,68.3247204 261.570324,71.756815 259.25,75.9462891 L259.25,126.316406 C261.570324,130.441427 264.664043,133.809069 268.53125,136.419434 C272.398457,139.029798 277.296845,140.334961 283.226562,140.334961 C288.189478,140.334961 292.475568,139.287608 296.084961,137.192871 C299.694354,135.098134 302.659168,132.278338 304.979492,128.733398 C307.299816,125.188459 309.02392,121.095726 310.151855,116.455078 C311.279791,111.81443 311.84375,106.948268 311.84375,101.856445 L311.84375,99.8261719 Z M406.493164,154.933594 C399.145471,154.933594 392.394074,153.67677 386.23877,151.163086 C380.083465,148.649401 374.814475,145.136741 370.431641,140.625 C366.048806,136.113259 362.632825,130.763703 360.183594,124.576172 C357.734363,118.388641 356.509766,111.653357 356.509766,104.370117 L356.509766,100.30957 C356.509766,91.8661687 357.863268,84.3091154 360.570312,77.6381836 C363.277357,70.9672518 366.870583,65.3276598 371.350098,60.7192383 C375.829612,56.1108168 380.921358,52.5820435 386.625488,50.1328125 C392.329618,47.6835815 398.178681,46.4589844 404.172852,46.4589844 C411.713905,46.4589844 418.304171,47.7641471 423.943848,50.3745117 C429.583524,52.9848763 434.272442,56.5942152 438.010742,61.2026367 C441.749042,65.8110582 444.536612,71.2411797 446.373535,77.4931641 C448.210458,83.7451484 449.128906,90.5126589 449.128906,97.7958984 L449.128906,105.820312 L374.395508,105.820312 C374.588868,110.589868 375.507316,115.069315 377.150879,119.258789 C378.794442,123.448263 381.050279,127.105941 383.918457,130.231934 C386.786635,133.357926 390.21873,135.823233 394.214844,137.62793 C398.210957,139.432626 402.625952,140.334961 407.459961,140.334961 C413.840852,140.334961 419.51267,139.045911 424.475586,136.467773 C429.438501,133.889636 433.56346,130.473654 436.850586,126.219727 L447.775391,134.727539 C446.035148,137.37013 443.859876,139.89989 441.249512,142.316895 C438.639147,144.733899 435.625994,146.876944 432.209961,148.746094 C428.793928,150.615244 424.926779,152.113764 420.608398,153.241699 C416.290017,154.369635 411.584986,154.933594 406.493164,154.933594 L406.493164,154.933594 Z M404.172852,61.1542969 C400.563459,61.1542969 397.147477,61.8149348 393.924805,63.1362305 C390.702132,64.4575261 387.801771,66.3911006 385.223633,68.9370117 C382.645495,71.4829229 380.470224,74.6088682 378.697754,78.3149414 C376.925284,82.0210146 375.684574,86.2909915 374.975586,91.125 L431.243164,91.125 L431.243164,89.7714844 C431.049804,86.2909982 430.389166,82.8427905 429.26123,79.4267578 C428.133295,76.0107251 426.473644,72.9492323 424.282227,70.2421875 C422.090809,67.5351427 419.335466,65.3437584 416.016113,63.6679688 C412.696761,61.9921791 408.749046,61.1542969 404.172852,61.1542969 L404.172852,61.1542969 Z M474.072266,99.7294922 C474.072266,92.1884389 475.167958,85.1792316 477.359375,78.7016602 C479.550792,72.2240887 482.692851,66.6006098 486.785645,61.8310547 C490.878438,57.0614996 495.857393,53.3071426 501.722656,50.5678711 C507.58792,47.8285996 514.194299,46.4589844 521.541992,46.4589844 C528.954139,46.4589844 535.608857,47.8285996 541.506348,50.5678711 C547.403838,53.3071426 552.398905,57.0614996 556.491699,61.8310547 C560.584493,66.6006098 563.726552,72.2240887 565.917969,78.7016602 C568.109386,85.1792316 569.205078,92.1884389 569.205078,99.7294922 L569.205078,101.856445 C569.205078,109.397499 568.109386,116.390593 565.917969,122.835938 C563.726552,129.281282 560.584493,134.888648 556.491699,139.658203 C552.398905,144.427758 547.419951,148.166002 541.554688,150.873047 C535.689424,153.580092 529.083045,154.933594 521.735352,154.933594 C514.323205,154.933594 507.668487,153.580092 501.770996,150.873047 C495.873506,148.166002 490.878438,144.427758 486.785645,139.658203 C482.692851,134.888648 479.550792,129.281282 477.359375,122.835938 C475.167958,116.390593 474.072266,109.397499 474.072266,101.856445 L474.072266,99.7294922 Z M491.958008,101.856445 C491.958008,107.012721 492.570306,111.927223 493.794922,116.600098 C495.019537,121.272973 496.872546,125.381818 499.354004,128.926758 C501.835462,132.471697 504.945294,135.27538 508.683594,137.337891 C512.421894,139.400401 516.772436,140.431641 521.735352,140.431641 C526.633814,140.431641 530.936017,139.400401 534.64209,137.337891 C538.348163,135.27538 541.441882,132.471697 543.92334,128.926758 C546.404798,125.381818 548.257806,121.272973 549.482422,116.600098 C550.707037,111.927223 551.319336,107.012721 551.319336,101.856445 L551.319336,99.7294922 C551.319336,94.6376699 550.690924,89.7553945 549.434082,85.0825195 C548.17724,80.4096446 546.308118,76.300799 543.82666,72.7558594 C541.345202,69.2109198 538.251483,66.3911238 534.54541,64.2963867 C530.839337,62.2016497 526.504908,61.1542969 521.541992,61.1542969 C516.579077,61.1542969 512.260761,62.2016497 508.586914,64.2963867 C504.913068,66.3911238 501.835462,69.2109198 499.354004,72.7558594 C496.872546,76.300799 495.019537,80.4096446 493.794922,85.0825195 C492.570306,89.7553945 491.958008,94.6376699 491.958008,99.7294922 L491.958008,101.856445 Z M624.602539,153 L624.602539,62.2177734 L595.791992,62.2177734 L595.791992,48.3925781 L624.602539,48.3925781 L624.602539,41.0449219 C624.602539,34.3417634 625.585439,28.4604745 627.55127,23.4008789 C629.5171,18.3412833 632.288556,14.1035327 635.865723,10.6875 C639.442889,7.27146729 643.745092,4.69336808 648.772461,2.953125 C653.79983,1.21288192 659.407196,0.342773438 665.594727,0.342773438 C669.848654,0.342773438 673.989726,0.69726208 678.018066,1.40625 C682.046407,2.11523792 686.187479,3.01757265 690.441406,4.11328125 L688.314453,18.9052734 C685.671862,18.0029252 682.594256,17.2133823 679.081543,16.5366211 C675.56883,15.8598599 671.814473,15.5214844 667.818359,15.5214844 C659.439411,15.5859378 653.139181,17.7128697 648.91748,21.9023438 C644.69578,26.0918178 642.584961,32.4726134 642.584961,41.0449219 L642.584961,48.3925781 L682.900391,48.3925781 L682.900391,62.2177734 L642.584961,62.2177734 L642.584961,153 L624.602539,153 Z"></path>
                    <rect id="Rectangle-8-Copy" transform="translate(737.000000, 163.500000) rotate(-270.000000) translate(-737.000000, -163.500000) " x="728" y="117" width="18" height="93"></rect>
                </g>
            </g>
        </g>
    </g>
</svg>