<?xml version="1.0" encoding="UTF-8" standalone="no"?>
<svg width="458px" height="458px" viewBox="0 0 458 458" version="1.1" xmlns="http://www.w3.org/2000/svg" xmlns:xlink="http://www.w3.org/1999/xlink" xmlns:sketch="http://www.bohemiancoding.com/sketch/ns">
    <!-- Generator: Sketch 3.3.3 (12072) - http://www.bohemiancoding.com/sketch -->
    <title>Strategi</title>
    <desc>Created with Sketch.</desc>
    <defs></defs>
    <g id="Page-1" stroke="none" stroke-width="1" fill="none" fill-rule="evenodd" sketch:type="MSPage">
        <g id="Strategi" sketch:type="MSArtboardGroup">
            <path d="M282.5,296.5 L357.5,362.5" id="Line" stroke="#A79E8B" stroke-width="5" stroke-linecap="square" sketch:type="MSShapeGroup"></path>
            <path d="M105.5,320.5 L183.5,276.5" id="Line" stroke="#A79E8B" stroke-width="5" stroke-linecap="square" sketch:type="MSShapeGroup"></path>
            <path d="M332.5,151.5 L290.5,198.5" id="Line" stroke="#A79E8B" stroke-width="5" stroke-linecap="square" sketch:type="MSShapeGroup"></path>
            <path d="M187.5,107.5 L211.5,187.5" id="Line" stroke="#A79E8B" stroke-width="5" stroke-linecap="square" sketch:type="MSShapeGroup"></path>
            <path d="M242.5,309 C277.570082,309 306,280.570082 306,245.5 C306,210.429918 277.570082,182 242.5,182 C207.429918,182 179,210.429918 179,245.5 C179,280.570082 207.429918,309 242.5,309 Z" id="Oval-1" stroke="#827055" stroke-width="10" sketch:type="MSShapeGroup"></path>
            <path d="M181,105.5 C199.501539,105.5 214.5,90.5015391 214.5,72 C214.5,53.4984609 199.501539,38.5 181,38.5 C162.498461,38.5 147.5,53.4984609 147.5,72 C147.5,90.5015391 162.498461,105.5 181,105.5 Z" id="Oval-1-Copy" stroke="#827055" stroke-width="10" sketch:type="MSShapeGroup"></path>
            <path d="M354,158.5 C368.635546,158.5 380.5,146.635546 380.5,132 C380.5,117.364454 368.635546,105.5 354,105.5 C339.364454,105.5 327.5,117.364454 327.5,132 C327.5,146.635546 339.364454,158.5 354,158.5 Z" id="Oval-1-Copy-2" stroke="#827055" stroke-width="10" sketch:type="MSShapeGroup"></path>
            <path d="M381,419.5 C398.949254,419.5 413.5,404.949254 413.5,387 C413.5,369.050746 398.949254,354.5 381,354.5 C363.050746,354.5 348.5,369.050746 348.5,387 C348.5,404.949254 363.050746,419.5 381,419.5 Z" id="Oval-1-Copy-3" stroke="#827055" stroke-width="10" sketch:type="MSShapeGroup"></path>
            <path d="M77,373.5 C94.9492544,373.5 109.5,358.949254 109.5,341 C109.5,323.050746 94.9492544,308.5 77,308.5 C59.0507456,308.5 44.5,323.050746 44.5,341 C44.5,358.949254 59.0507456,373.5 77,373.5 Z" id="Oval-1-Copy-4" stroke="#827055" stroke-width="10" sketch:type="MSShapeGroup"></path>
        </g>
    </g>
</svg>