<?xml version="1.0" encoding="UTF-8" standalone="no"?>
<svg width="691px" height="196px" viewBox="0 0 691 196" version="1.1" xmlns="http://www.w3.org/2000/svg" xmlns:xlink="http://www.w3.org/1999/xlink" xmlns:sketch="http://www.bohemiancoding.com/sketch/ns">
    <!-- Generator: Sketch 3.3.3 (12072) - http://www.bohemiancoding.com/sketch -->
    <title>typeof</title>
    <desc>Created with Sketch.</desc>
    <defs></defs>
    <g id="Page-1" stroke="none" stroke-width="1" fill="none" fill-rule="evenodd" sketch:type="MSPage">
        <g id="Group" sketch:type="MSLayerGroup" transform="translate(-219.000000, -176.000000)" fill="#FFFFFF">
            <g id="typeof" transform="translate(219.000000, 176.000000)" sketch:type="MSShapeGroup">
                <rect id="Rectangle-4" x="241.349976" y="184" width="17.8999996" height="11"></rect>
                <path d="M46.1679687,23.0625 L46.1679687,48.3925781 L86,48.3925781 L86,62.2177734 L46.1679687,62.2177734 L46.1679687,119.06543 C46.1679687,123.125997 46.6835886,126.477526 47.7148437,129.120117 C48.7460989,131.762709 50.1640535,133.873527 51.96875,135.452637 C53.7734465,137.031746 55.852039,138.143551 58.2045898,138.788086 C60.5571407,139.43262 63.0546743,139.754883 65.6972656,139.754883 C67.630869,139.754883 69.6288959,139.642091 71.6914062,139.416504 C73.7539166,139.190917 75.7680566,138.916994 77.7338867,138.594727 C79.6997169,138.272459 81.5366126,137.934084 83.2446289,137.57959 C84.9526453,137.225096 86.3544867,136.918947 87.4501953,136.661133 L89.9638672,149.326172 C88.4814379,150.22852 86.6767684,151.018063 84.5498047,151.694824 C82.4228409,152.371585 80.1025516,152.951658 77.5888672,153.435059 C75.0751827,153.918459 72.4165179,154.289061 69.612793,154.546875 C66.809068,154.804689 64.0214982,154.933594 61.25,154.933594 C56.6093518,154.933594 52.2749225,154.272956 48.246582,152.95166 C44.2182416,151.630364 40.7216945,149.535659 37.7568359,146.66748 C34.7919774,143.799302 32.4555749,140.093284 30.7475586,135.549316 C29.0395422,131.005348 28.1855469,125.510774 28.1855469,119.06543 L28.1855469,62.2177734 L0.728515625,62.2177734 L0.728515625,48.3925781 L28.1855469,48.3925781 L28.1855469,23.0625 L46.1679687,23.0625 Z M161.120117,115.875 L165.760742,128.540039 L197.665039,48.3925781 L217.677734,48.3925781 L164.600586,169.145508 C163.37597,171.852553 161.812998,174.720688 159.911621,177.75 C158.010244,180.779312 155.706068,183.582995 152.999023,186.161133 C150.291979,188.739271 147.133807,190.898429 143.524414,192.638672 C139.915021,194.378915 135.757836,195.249023 131.052734,195.249023 C130.21484,195.249023 129.280279,195.200684 128.249023,195.104004 C127.217768,195.007324 126.186529,194.878419 125.155273,194.717285 C124.124018,194.556152 123.157231,194.378907 122.254883,194.185547 C121.352535,193.992187 120.611331,193.831055 120.03125,193.702148 L122.931641,179.103516 C123.382815,179.103516 123.995113,179.135742 124.768555,179.200195 C125.541996,179.264649 126.347652,179.329101 127.185547,179.393555 C128.023442,179.458008 128.829098,179.506347 129.602539,179.538574 C130.37598,179.570801 130.988279,179.586914 131.439453,179.586914 C133.888684,179.586914 136.128408,178.910163 138.158691,177.556641 C140.188975,176.203118 141.993644,174.591806 143.572754,172.722656 C145.151863,170.853506 146.505365,168.919932 147.633301,166.921875 C148.761236,164.923818 149.647458,163.28028 150.291992,161.991211 L157.446289,148.069336 L112.393555,48.3925781 L132.40625,48.3925781 L161.120117,115.875 Z M329.729492,101.856445 C329.729492,109.333045 328.827157,116.310026 327.022461,122.787598 C325.217764,129.265169 322.575213,134.888648 319.094727,139.658203 C315.61424,144.427758 311.312037,148.166002 306.187988,150.873047 C301.063939,153.580092 295.214877,154.933594 288.640625,154.933594 C282.259734,154.933594 276.636255,153.902354 271.77002,151.839844 C266.903784,149.777333 262.730486,146.812519 259.25,142.945312 L259.25,193.21875 L241.364258,193.21875 L241.364258,48.3925781 L257.703125,48.3925781 L258.573242,59.8007812 C262.053728,55.4824003 266.259253,52.1792107 271.189941,49.8911133 C276.12063,47.6030159 281.840788,46.4589844 288.350586,46.4589844 C295.053744,46.4589844 300.983373,47.7802602 306.139648,50.4228516 C311.295924,53.0654429 315.61424,56.7392343 319.094727,61.4443359 C322.575213,66.1494376 325.217764,71.7729165 327.022461,78.3149414 C328.827157,84.8569663 329.729492,92.0273048 329.729492,99.8261719 L329.729492,101.856445 Z M311.84375,99.8261719 C311.84375,94.7343495 311.279791,89.8843004 310.151855,85.2758789 C309.02392,80.6674574 307.283703,76.6069512 304.931152,73.0942383 C302.578602,69.5815254 299.597674,66.7939556 295.988281,64.7314453 C292.378888,62.668935 288.060572,61.6376953 283.033203,61.6376953 C277.296846,61.6376953 272.479023,62.9750843 268.57959,65.6499023 C264.680156,68.3247204 261.570324,71.756815 259.25,75.9462891 L259.25,126.316406 C261.570324,130.441427 264.664043,133.809069 268.53125,136.419434 C272.398457,139.029798 277.296845,140.334961 283.226562,140.334961 C288.189478,140.334961 292.475568,139.287608 296.084961,137.192871 C299.694354,135.098134 302.659168,132.278338 304.979492,128.733398 C307.299816,125.188459 309.02392,121.095726 310.151855,116.455078 C311.279791,111.81443 311.84375,106.948268 311.84375,101.856445 L311.84375,99.8261719 Z M406.493164,154.933594 C399.145471,154.933594 392.394074,153.67677 386.23877,151.163086 C380.083465,148.649401 374.814475,145.136741 370.431641,140.625 C366.048806,136.113259 362.632825,130.763703 360.183594,124.576172 C357.734363,118.388641 356.509766,111.653357 356.509766,104.370117 L356.509766,100.30957 C356.509766,91.8661687 357.863268,84.3091154 360.570312,77.6381836 C363.277357,70.9672518 366.870583,65.3276598 371.350098,60.7192383 C375.829612,56.1108168 380.921358,52.5820435 386.625488,50.1328125 C392.329618,47.6835815 398.178681,46.4589844 404.172852,46.4589844 C411.713905,46.4589844 418.304171,47.7641471 423.943848,50.3745117 C429.583524,52.9848763 434.272442,56.5942152 438.010742,61.2026367 C441.749042,65.8110582 444.536612,71.2411797 446.373535,77.4931641 C448.210458,83.7451484 449.128906,90.5126589 449.128906,97.7958984 L449.128906,105.820312 L374.395508,105.820312 C374.588868,110.589868 375.507316,115.069315 377.150879,119.258789 C378.794442,123.448263 381.050279,127.105941 383.918457,130.231934 C386.786635,133.357926 390.21873,135.823233 394.214844,137.62793 C398.210957,139.432626 402.625952,140.334961 407.459961,140.334961 C413.840852,140.334961 419.51267,139.045911 424.475586,136.467773 C429.438501,133.889636 433.56346,130.473654 436.850586,126.219727 L447.775391,134.727539 C446.035148,137.37013 443.859876,139.89989 441.249512,142.316895 C438.639147,144.733899 435.625994,146.876944 432.209961,148.746094 C428.793928,150.615244 424.926779,152.113764 420.608398,153.241699 C416.290017,154.369635 411.584986,154.933594 406.493164,154.933594 L406.493164,154.933594 Z M404.172852,61.1542969 C400.563459,61.1542969 397.147477,61.8149348 393.924805,63.1362305 C390.702132,64.4575261 387.801771,66.3911006 385.223633,68.9370117 C382.645495,71.4829229 380.470224,74.6088682 378.697754,78.3149414 C376.925284,82.0210146 375.684574,86.2909915 374.975586,91.125 L431.243164,91.125 L431.243164,89.7714844 C431.049804,86.2909982 430.389166,82.8427905 429.26123,79.4267578 C428.133295,76.0107251 426.473644,72.9492323 424.282227,70.2421875 C422.090809,67.5351427 419.335466,65.3437584 416.016113,63.6679688 C412.696761,61.9921791 408.749046,61.1542969 404.172852,61.1542969 L404.172852,61.1542969 Z M474.072266,99.7294922 C474.072266,92.1884389 475.167958,85.1792316 477.359375,78.7016602 C479.550792,72.2240887 482.692851,66.6006098 486.785645,61.8310547 C490.878438,57.0614996 495.857393,53.3071426 501.722656,50.5678711 C507.58792,47.8285996 514.194299,46.4589844 521.541992,46.4589844 C528.954139,46.4589844 535.608857,47.8285996 541.506348,50.5678711 C547.403838,53.3071426 552.398905,57.0614996 556.491699,61.8310547 C560.584493,66.6006098 563.726552,72.2240887 565.917969,78.7016602 C568.109386,85.1792316 569.205078,92.1884389 569.205078,99.7294922 L569.205078,101.856445 C569.205078,109.397499 568.109386,116.390593 565.917969,122.835938 C563.726552,129.281282 560.584493,134.888648 556.491699,139.658203 C552.398905,144.427758 547.419951,148.166002 541.554688,150.873047 C535.689424,153.580092 529.083045,154.933594 521.735352,154.933594 C514.323205,154.933594 507.668487,153.580092 501.770996,150.873047 C495.873506,148.166002 490.878438,144.427758 486.785645,139.658203 C482.692851,134.888648 479.550792,129.281282 477.359375,122.835938 C475.167958,116.390593 474.072266,109.397499 474.072266,101.856445 L474.072266,99.7294922 Z M491.958008,101.856445 C491.958008,107.012721 492.570306,111.927223 493.794922,116.600098 C495.019537,121.272973 496.872546,125.381818 499.354004,128.926758 C501.835462,132.471697 504.945294,135.27538 508.683594,137.337891 C512.421894,139.400401 516.772436,140.431641 521.735352,140.431641 C526.633814,140.431641 530.936017,139.400401 534.64209,137.337891 C538.348163,135.27538 541.441882,132.471697 543.92334,128.926758 C546.404798,125.381818 548.257806,121.272973 549.482422,116.600098 C550.707037,111.927223 551.319336,107.012721 551.319336,101.856445 L551.319336,99.7294922 C551.319336,94.6376699 550.690924,89.7553945 549.434082,85.0825195 C548.17724,80.4096446 546.308118,76.300799 543.82666,72.7558594 C541.345202,69.2109198 538.251483,66.3911238 534.54541,64.2963867 C530.839337,62.2016497 526.504908,61.1542969 521.541992,61.1542969 C516.579077,61.1542969 512.260761,62.2016497 508.586914,64.2963867 C504.913068,66.3911238 501.835462,69.2109198 499.354004,72.7558594 C496.872546,76.300799 495.019537,80.4096446 493.794922,85.0825195 C492.570306,89.7553945 491.958008,94.6376699 491.958008,99.7294922 L491.958008,101.856445 Z M624.602539,153 L624.602539,62.2177734 L595.791992,62.2177734 L595.791992,48.3925781 L624.602539,48.3925781 L624.602539,41.0449219 C624.602539,34.3417634 625.585439,28.4604745 627.55127,23.4008789 C629.5171,18.3412833 632.288556,14.1035327 635.865723,10.6875 C639.442889,7.27146729 643.745092,4.69336808 648.772461,2.953125 C653.79983,1.21288192 659.407196,0.342773438 665.594727,0.342773438 C669.848654,0.342773438 673.989726,0.69726208 678.018066,1.40625 C682.046407,2.11523792 686.187479,3.01757265 690.441406,4.11328125 L688.314453,18.9052734 C685.671862,18.0029252 682.594256,17.2133823 679.081543,16.5366211 C675.56883,15.8598599 671.814473,15.5214844 667.818359,15.5214844 C659.439411,15.5859378 653.139181,17.7128697 648.91748,21.9023438 C644.69578,26.0918178 642.584961,32.4726134 642.584961,41.0449219 L642.584961,48.3925781 L682.900391,48.3925781 L682.900391,62.2177734 L642.584961,62.2177734 L642.584961,153 L624.602539,153 Z"></path>
                <path d="M314.230469,188.820312 L314.230469,195.5 L311.980469,195.5 L311.980469,178.4375 L318.273438,178.4375 C320.140634,178.4375 321.60351,178.914058 322.662109,179.867188 C323.720708,180.820317 324.25,182.082023 324.25,183.652344 C324.25,185.308602 323.732427,186.58398 322.697266,187.478516 C321.662104,188.373051 320.179697,188.820312 318.25,188.820312 L314.230469,188.820312 Z M314.230469,186.980469 L318.273438,186.980469 C319.476569,186.980469 320.398434,186.697268 321.039062,186.130859 C321.679691,185.56445 322,184.746099 322,183.675781 C322,182.660151 321.679691,181.847659 321.039062,181.238281 C320.398434,180.628903 319.519537,180.3125 318.402344,180.289062 L314.230469,180.289062 L314.230469,186.980469 Z M344.628906,188.597656 L340.621094,188.597656 L340.621094,195.5 L338.359375,195.5 L338.359375,178.4375 L344.007812,178.4375 C345.929697,178.4375 347.408198,178.874996 348.443359,179.75 C349.478521,180.625004 349.996094,181.898429 349.996094,183.570312 C349.996094,184.632818 349.708987,185.55859 349.134766,186.347656 C348.560544,187.136723 347.761724,187.726561 346.738281,188.117188 L350.746094,195.359375 L350.746094,195.5 L348.332031,195.5 L344.628906,188.597656 Z M340.621094,186.757812 L344.078125,186.757812 C345.195318,186.757812 346.083981,186.468753 346.744141,185.890625 C347.4043,185.312497 347.734375,184.539067 347.734375,183.570312 C347.734375,182.51562 347.419925,181.707034 346.791016,181.144531 C346.162106,180.582028 345.253912,180.296875 344.066406,180.289062 L340.621094,180.289062 L340.621094,186.757812 Z M377.523438,187.519531 C377.523438,189.191415 377.24219,190.650384 376.679688,191.896484 C376.117185,193.142584 375.320318,194.093747 374.289062,194.75 C373.257807,195.406253 372.054694,195.734375 370.679688,195.734375 C369.335931,195.734375 368.144536,195.4043 367.105469,194.744141 C366.066401,194.083981 365.259768,193.142584 364.685547,191.919922 C364.111325,190.69726 363.816406,189.281258 363.800781,187.671875 L363.800781,186.441406 C363.800781,184.800773 364.085935,183.351569 364.65625,182.09375 C365.226565,180.835931 366.033198,179.87305 367.076172,179.205078 C368.119146,178.537106 369.312493,178.203125 370.65625,178.203125 C372.023444,178.203125 373.22851,178.5332 374.271484,179.193359 C375.314458,179.853519 376.117185,180.810541 376.679688,182.064453 C377.24219,183.318366 377.523438,184.777335 377.523438,186.441406 L377.523438,187.519531 Z M375.285156,186.417969 C375.285156,184.394521 374.87891,182.841802 374.066406,181.759766 C373.253902,180.677729 372.117195,180.136719 370.65625,180.136719 C369.234368,180.136719 368.115238,180.677729 367.298828,181.759766 C366.482418,182.841802 366.0625,184.34374 366.039062,186.265625 L366.039062,187.519531 C366.039062,189.480479 366.451168,191.021479 367.275391,192.142578 C368.099613,193.263677 369.234368,193.824219 370.679688,193.824219 C372.13282,193.824219 373.257809,193.294927 374.054688,192.236328 C374.851566,191.177729 375.261719,189.660166 375.285156,187.683594 L375.285156,186.417969 Z M392.148438,195.5 L392.148438,178.4375 L396.964844,178.4375 C398.449226,178.4375 399.761713,178.765622 400.902344,179.421875 C402.042974,180.078128 402.923825,181.011713 403.544922,182.222656 C404.166019,183.4336 404.480469,184.824211 404.488281,186.394531 L404.488281,187.484375 C404.488281,189.093758 404.177737,190.5039 403.556641,191.714844 C402.935544,192.925787 402.048834,193.855466 400.896484,194.503906 C399.744135,195.152347 398.402351,195.484375 396.871094,195.5 L392.148438,195.5 Z M394.398438,180.289062 L394.398438,193.660156 L396.765625,193.660156 C398.500009,193.660156 399.849605,193.121099 400.814453,192.042969 C401.779302,190.964838 402.261719,189.429697 402.261719,187.4375 L402.261719,186.441406 C402.261719,184.503897 401.806645,182.998052 400.896484,181.923828 C399.986324,180.849604 398.695321,180.304688 397.023438,180.289062 L394.398438,180.289062 Z M431.148438,178.4375 L431.148438,190.039062 C431.140625,191.648446 430.634771,192.964839 429.630859,193.988281 C428.626948,195.011724 427.265634,195.585937 425.546875,195.710938 L424.949219,195.734375 C423.082022,195.734375 421.593756,195.230474 420.484375,194.222656 C419.374994,193.214839 418.8125,191.828134 418.796875,190.0625 L418.796875,178.4375 L421.023438,178.4375 L421.023438,189.992188 C421.023438,191.226569 421.363278,192.185543 422.042969,192.869141 C422.72266,193.552738 423.6914,193.894531 424.949219,193.894531 C426.222663,193.894531 427.197262,193.554691 427.873047,192.875 C428.548832,192.195309 428.886719,191.238287 428.886719,190.003906 L428.886719,178.4375 L431.148438,178.4375 Z M450.285156,187.566406 L448.199219,189.734375 L448.199219,195.5 L445.949219,195.5 L445.949219,178.4375 L448.199219,178.4375 L448.199219,186.875 L455.78125,178.4375 L458.5,178.4375 L451.785156,185.972656 L459.027344,195.5 L456.332031,195.5 L450.285156,187.566406 Z M484.035156,180.289062 L478.550781,180.289062 L478.550781,195.5 L476.3125,195.5 L476.3125,180.289062 L470.839844,180.289062 L470.839844,178.4375 L484.035156,178.4375 L484.035156,180.289062 Z M500.230469,195.5 L497.980469,195.5 L497.980469,178.4375 L500.230469,178.4375 L500.230469,195.5 Z M528.71875,187.519531 C528.71875,189.191415 528.437503,190.650384 527.875,191.896484 C527.312497,193.142584 526.51563,194.093747 525.484375,194.75 C524.45312,195.406253 523.250007,195.734375 521.875,195.734375 C520.531243,195.734375 519.339849,195.4043 518.300781,194.744141 C517.261714,194.083981 516.455081,193.142584 515.880859,191.919922 C515.306638,190.69726 515.011719,189.281258 514.996094,187.671875 L514.996094,186.441406 C514.996094,184.800773 515.281247,183.351569 515.851562,182.09375 C516.421878,180.835931 517.22851,179.87305 518.271484,179.205078 C519.314458,178.537106 520.507806,178.203125 521.851562,178.203125 C523.218757,178.203125 524.423823,178.5332 525.466797,179.193359 C526.509771,179.853519 527.312497,180.810541 527.875,182.064453 C528.437503,183.318366 528.71875,184.777335 528.71875,186.441406 L528.71875,187.519531 Z M526.480469,186.417969 C526.480469,184.394521 526.074223,182.841802 525.261719,181.759766 C524.449215,180.677729 523.312507,180.136719 521.851562,180.136719 C520.42968,180.136719 519.310551,180.677729 518.494141,181.759766 C517.67773,182.841802 517.257813,184.34374 517.234375,186.265625 L517.234375,187.519531 C517.234375,189.480479 517.64648,191.021479 518.470703,192.142578 C519.294926,193.263677 520.42968,193.824219 521.875,193.824219 C523.328132,193.824219 524.453121,193.294927 525.25,192.236328 C526.046879,191.177729 526.457031,189.660166 526.480469,187.683594 L526.480469,186.417969 Z M556.457031,195.5 L554.195312,195.5 L545.605469,182.351562 L545.605469,195.5 L543.34375,195.5 L543.34375,178.4375 L545.605469,178.4375 L554.21875,191.644531 L554.21875,178.4375 L556.457031,178.4375 L556.457031,195.5 Z M576.730469,187.894531 C574.800772,187.339841 573.396489,186.658207 572.517578,185.849609 C571.638667,185.041012 571.199219,184.042975 571.199219,182.855469 C571.199219,181.511712 571.736323,180.400395 572.810547,179.521484 C573.884771,178.642574 575.281241,178.203125 577,178.203125 C578.171881,178.203125 579.216792,178.429685 580.134766,178.882812 C581.052739,179.33594 581.763669,179.960934 582.267578,180.757812 C582.771487,181.554691 583.023438,182.425777 583.023438,183.371094 L580.761719,183.371094 C580.761719,182.339839 580.433597,181.5293 579.777344,180.939453 C579.12109,180.349606 578.195318,180.054688 577,180.054688 C575.890619,180.054688 575.025394,180.298826 574.404297,180.787109 C573.7832,181.275393 573.472656,181.953121 573.472656,182.820312 C573.472656,183.515628 573.767575,184.103513 574.357422,184.583984 C574.947269,185.064456 575.951165,185.503904 577.369141,185.902344 C578.787116,186.300783 579.89648,186.740232 580.697266,187.220703 C581.498051,187.701174 582.091795,188.261716 582.478516,188.902344 C582.865236,189.542972 583.058594,190.296871 583.058594,191.164062 C583.058594,192.546882 582.519537,193.654293 581.441406,194.486328 C580.363276,195.318364 578.921884,195.734375 577.117188,195.734375 C575.945307,195.734375 574.851568,195.509768 573.835938,195.060547 C572.820307,194.611326 572.037112,193.996098 571.486328,193.214844 C570.935544,192.43359 570.660156,191.54688 570.660156,190.554688 L572.921875,190.554688 C572.921875,191.585943 573.302731,192.400388 574.064453,192.998047 C574.826176,193.595706 575.843744,193.894531 577.117188,193.894531 C578.304693,193.894531 579.214841,193.652346 579.847656,193.167969 C580.480472,192.683591 580.796875,192.023442 580.796875,191.1875 C580.796875,190.351558 580.503909,189.70508 579.917969,189.248047 C579.332028,188.791013 578.269539,188.339846 576.730469,187.894531 L576.730469,187.894531 Z M597.191406,195.5 L597.191406,178.4375 L602.769531,178.4375 C604.621103,178.4375 606.013667,178.820309 606.947266,179.585938 C607.880864,180.351566 608.347656,181.484367 608.347656,182.984375 C608.347656,183.781254 608.121096,184.486325 607.667969,185.099609 C607.214841,185.712894 606.59766,186.187498 605.816406,186.523438 C606.738286,186.781251 607.466794,187.271481 608.001953,187.994141 C608.537112,188.7168 608.804688,189.57812 608.804688,190.578125 C608.804688,192.109383 608.308599,193.312496 607.316406,194.1875 C606.324214,195.062504 604.921884,195.5 603.109375,195.5 L597.191406,195.5 Z M599.441406,187.519531 L599.441406,193.660156 L603.15625,193.660156 C604.20313,193.660156 605.029294,193.388675 605.634766,192.845703 C606.240237,192.302732 606.542969,191.554692 606.542969,190.601562 C606.542969,188.546865 605.425792,187.519531 603.191406,187.519531 L599.441406,187.519531 Z M599.441406,185.714844 L602.839844,185.714844 C603.824224,185.714844 604.611325,185.468752 605.201172,184.976562 C605.791019,184.484373 606.085938,183.81641 606.085938,182.972656 C606.085938,182.035152 605.812503,181.353518 605.265625,180.927734 C604.718747,180.501951 603.886724,180.289062 602.769531,180.289062 L599.441406,180.289062 L599.441406,185.714844 Z M627.941406,187.003906 L632.394531,178.4375 L634.949219,178.4375 L629.066406,189.136719 L629.066406,195.5 L626.816406,195.5 L626.816406,189.136719 L620.933594,178.4375 L623.511719,178.4375 L627.941406,187.003906 Z M654.660156,188.597656 L650.652344,188.597656 L650.652344,195.5 L648.390625,195.5 L648.390625,178.4375 L654.039062,178.4375 C655.960947,178.4375 657.439448,178.874996 658.474609,179.75 C659.509771,180.625004 660.027344,181.898429 660.027344,183.570312 C660.027344,184.632818 659.740237,185.55859 659.166016,186.347656 C658.591794,187.136723 657.792974,187.726561 656.769531,188.117188 L660.777344,195.359375 L660.777344,195.5 L658.363281,195.5 L654.660156,188.597656 Z M650.652344,186.757812 L654.109375,186.757812 C655.226568,186.757812 656.115231,186.468753 656.775391,185.890625 C657.43555,185.312497 657.765625,184.539067 657.765625,183.570312 C657.765625,182.51562 657.451175,181.707034 656.822266,181.144531 C656.193356,180.582028 655.285162,180.296875 654.097656,180.289062 L650.652344,180.289062 L650.652344,186.757812 Z M683.851562,191.046875 L676.703125,191.046875 L675.097656,195.5 L672.777344,195.5 L679.292969,178.4375 L681.261719,178.4375 L687.789062,195.5 L685.480469,195.5 L683.851562,191.046875 Z M677.382812,189.195312 L683.183594,189.195312 L680.277344,181.214844 L677.382812,189.195312 Z M682.84375,175.238281 C682.84375,175.917972 682.601565,176.486326 682.117188,176.943359 C681.63281,177.400393 681.03516,177.628906 680.324219,177.628906 C679.605465,177.628906 679.005862,177.39844 678.525391,176.9375 C678.044919,176.47656 677.804688,175.91016 677.804688,175.238281 C677.804688,174.566403 678.044919,173.99219 678.525391,173.515625 C679.005862,173.03906 679.605465,172.800781 680.324219,172.800781 C681.042972,172.800781 681.642576,173.03906 682.123047,173.515625 C682.603518,173.99219 682.84375,174.566403 682.84375,175.238281 L682.84375,175.238281 Z M678.964844,175.238281 C678.964844,175.605471 679.095702,175.921874 679.357422,176.1875 C679.619142,176.453126 679.941404,176.585938 680.324219,176.585938 C680.699221,176.585938 681.01953,176.457033 681.285156,176.199219 C681.550783,175.941405 681.683594,175.621096 681.683594,175.238281 C681.683594,174.855467 681.552736,174.529298 681.291016,174.259766 C681.029296,173.990233 680.707033,173.855469 680.324219,173.855469 C679.933592,173.855469 679.609376,173.992186 679.351562,174.265625 C679.093749,174.539064 678.964844,174.863279 678.964844,175.238281 L678.964844,175.238281 Z" id="PRODUKTIONSBYRÅ"></path>
            </g>
        </g>
    </g>
</svg>